<?xml version="1.0" encoding="UTF-8"?>
<svg xmlns="http://www.w3.org/2000/svg" width="483" height="134" viewBox="0 0 483 134" fill="none">
  <g clip-path="url(#clip0_884_2)">
    <path fill-rule="evenodd" clip-rule="evenodd" d="M162.05 121.68H163.2C163.45 121.68 163.63 121.63 163.75 121.52C163.87 121.42 163.92 121.25 163.92 121.03C163.92 120.82 163.86 120.66 163.75 120.55C163.64 120.44 163.47 120.38 163.24 120.38H162.05V121.68ZM161.07 124.45V119.54H163.37C163.89 119.54 164.27 119.65 164.52 119.88C164.77 120.11 164.89 120.46 164.89 120.93C164.89 121.23 164.83 121.48 164.71 121.68C164.59 121.88 164.41 122.02 164.19 122.09C164.4 122.17 164.54 122.28 164.63 122.44C164.72 122.6 164.77 122.84 164.78 123.17L164.8 123.75V123.77C164.8 124.06 164.87 124.24 164.98 124.3V124.45H163.91C163.88 124.38 163.85 124.3 163.83 124.19C163.81 124.09 163.8 123.97 163.8 123.83V123.31C163.78 123.01 163.72 122.8 163.62 122.69C163.52 122.58 163.34 122.53 163.08 122.53H162.05V124.44H161.08L161.07 124.45ZM162.88 118.14C165.05 118.14 166.81 119.91 166.81 122.07C166.81 124.23 165.04 126 162.88 126C160.72 126 158.95 124.23 158.95 122.07C158.95 119.91 160.72 118.14 162.88 118.14ZM162.88 118.72C164.73 118.72 166.24 120.23 166.24 122.07C166.24 123.91 164.73 125.42 162.88 125.42C161.03 125.42 159.53 123.91 159.53 122.07C159.53 120.23 161.04 118.72 162.88 118.72Z" fill="#330298"></path>
    <path fill-rule="evenodd" clip-rule="evenodd" d="M11.43 34.2599V16.01C11.73 16.01 12.04 16 12.35 16C39.27 16 63.61 38.69 63.61 66.51C63.61 89.49 48.17 109.23 26.93 115.31C26.87 115.32 26.77 115.09 26.71 115.09L26.84 115.04C41.52 109.34 52.94 95.38 53.25 75.86C53.63 51.31 32.26 33.9099 12 34.2599C11.81 34.2599 11.62 34.2599 11.43 34.2599ZM75.18 11.45C69.08 11.45 61.81 11.56 55.71 11.56C55.15 24.5 64.06 43.38 84.63 49.91C104.09 56.08 126.18 46.09 135 25.69C128.07 35.72 113.08 49.33 91.22 38.41C82.57 34.09 75.18 22.46 75.19 11.45H75.18ZM201.38 98.62V116.87C201.08 116.87 200.77 116.88 200.46 116.88C173.54 116.88 149.2 94.19 149.2 66.37C149.2 43.39 164.64 23.65 185.88 17.57C185.94 17.56 186.04 17.79 186.1 17.79L185.97 17.84C171.29 23.54 159.87 37.5 159.56 57.02C159.18 81.57 180.55 98.97 200.81 98.62C201 98.62 201.19 98.62 201.38 98.62ZM136.91 121.93C143.01 121.93 150.28 121.82 156.38 121.82C156.94 108.88 148.03 90 127.46 83.47C108 77.3 85.91 87.29 77.09 107.69C84.02 97.66 99.01 84.05 120.87 94.97C129.52 99.29 136.91 110.92 136.9 121.93H136.91Z" fill="#ED2D2F"></path>
    <path fill-rule="evenodd" clip-rule="evenodd" d="M139.27 11.6901H157.72C157.72 11.9901 157.73 12.3001 157.73 12.6101C157.73 39.5301 134.78 63.1901 106.65 63.1901C83.41 63.1901 63.44 48.4201 57.3 27.1801C57.29 27.1201 57.52 27.0201 57.52 26.9601L57.57 27.0901C63.34 41.7701 77.45 52.8501 97.2 53.1601C122.03 53.5401 139.63 30.7101 139.28 12.2501C139.28 12.0601 139.28 11.8701 139.28 11.6801L139.27 11.6901ZM201.63 35.2501C201.63 29.2201 201.52 22.0301 201.52 15.9901C188.58 15.4401 169.03 24.6901 162.5 45.0301C156.33 64.2701 165.76 85.6701 186.16 94.3901C176.13 87.5401 163.53 72.6001 174.45 50.9901C178.77 42.4401 190.62 35.2501 201.63 35.2501ZM72.82 121.68H54.37C54.37 121.38 54.36 121.07 54.36 120.76C54.36 93.8401 77.31 70.1801 105.44 70.1801C128.68 70.1801 148.65 84.9401 154.79 106.19C154.8 106.25 154.57 106.35 154.57 106.41L154.52 106.28C148.75 91.6001 134.64 80.5201 114.89 80.2101C90.06 79.8301 72.46 102.66 72.81 121.12C72.81 121.31 72.81 121.5 72.81 121.69L72.82 121.68ZM11.18 97.6201C11.18 103.65 11.29 110.84 11.29 116.88C24.23 117.43 43.78 108.18 50.31 87.84C56.48 68.6 47.05 47.2001 26.65 38.4801C36.68 45.3301 49.28 60.2701 38.36 81.8801C34.04 90.4301 22.19 97.6201 11.18 97.6201Z" fill="#330298"></path>
    <path fill-rule="evenodd" clip-rule="evenodd" d="M0 66.84C8.83 58.18 16.37 58.05 20.94 58.33C26.97 58.7 35.62 62.55 40.08 66.88C34.59 72.07 26.76 76.19 21.55 76.12C14.98 76.03 8.83 74.79 0.01 66.84H0ZM106.5 0C115.16 8.68 115.29 16.11 115.01 20.6C114.64 26.53 110.79 35.04 106.46 39.43C101.27 34.03 97.15 26.33 97.22 21.2C97.31 14.74 98.55 8.69 106.5 0.01V0ZM105.6 133.37C96.94 124.69 96.81 117.26 97.09 112.77C97.46 106.84 101.31 98.33 105.64 93.94C110.84 99.34 114.95 107.04 114.88 112.17C114.79 118.63 113.55 124.68 105.6 133.36V133.37ZM173.54 66.98C182.37 58.5 190.08 57.64 194.64 57.91C200.67 58.27 208.75 62.7 213.21 66.94C207.72 72.03 200.46 75.82 195.25 75.74C188.68 75.65 182.37 74.76 173.54 66.98Z" fill="#F7A941"></path>
    <path d="M268.7 116.04H262.12L259.51 109.74H247.55L245.08 116.04H238.67L250.32 88.3H256.71L268.69 116.04H268.7ZM257.58 105.07L253.46 94.78L249.42 105.07H257.58ZM272.06 116.04V88.53H278.1V111.36H293.12V116.04H272.06ZM297.24 116.04V88.3H303.28V116.04H297.24ZM308.96 116.04V88.3H318L323.43 107.22L328.79 88.3H337.85V116.04H332.24V94.21L326.3 116.04H320.48L314.56 94.21V116.04H308.95H308.96ZM343.85 116.04V88.3H366.03V92.99H349.89V99.14H364.91V103.81H349.89V111.36H366.6V116.04H343.85ZM371.78 116.04V88.3H377.66L389.9 106.82V88.3H395.51V116.04H389.44L377.38 97.95V116.04H371.77H371.78ZM408.63 116.04V93H399.76V88.31H423.53V93H414.68V116.04H408.63ZM425.46 102.35C425.46 99.52 425.91 97.15 426.83 95.23C427.51 93.82 428.44 92.55 429.62 91.43C430.8 90.31 432.09 89.48 433.49 88.94C435.36 88.2 437.5 87.84 439.94 87.84C444.35 87.84 447.87 89.11 450.52 91.64C453.17 94.17 454.49 97.7 454.49 102.21C454.49 106.72 453.17 110.19 450.55 112.72C447.92 115.24 444.41 116.51 440.03 116.51C435.65 116.51 432.04 115.25 429.42 112.74C426.79 110.22 425.48 106.75 425.48 102.34L425.46 102.35ZM431.67 102.16C431.67 105.3 432.46 107.68 434.02 109.3C435.59 110.92 437.57 111.73 439.98 111.73C442.39 111.73 444.36 110.93 445.91 109.31C447.45 107.7 448.22 105.29 448.22 102.08C448.22 98.87 447.47 96.53 445.97 94.96C444.47 93.4 442.47 92.62 439.98 92.62C437.49 92.62 435.48 93.41 433.96 95C432.44 96.58 431.68 98.96 431.68 102.16H431.67ZM457.65 107.02L463.53 106.48C463.88 108.31 464.6 109.66 465.68 110.52C466.76 111.37 468.22 111.81 470.05 111.81C471.99 111.81 473.46 111.43 474.44 110.66C475.43 109.9 475.92 109.01 475.92 107.99C475.92 107.33 475.71 106.78 475.29 106.32C474.88 105.85 474.15 105.45 473.12 105.12C472.42 104.89 470.8 104.49 468.29 103.91C465.05 103.17 462.78 102.25 461.48 101.17C459.64 99.65 458.72 97.79 458.72 95.59C458.72 94.18 459.15 92.86 460.02 91.62C460.88 90.39 462.13 89.46 463.75 88.81C465.38 88.17 467.34 87.85 469.64 87.85C473.4 87.85 476.22 88.61 478.12 90.14C480.01 91.67 481.01 93.7 481.11 96.26L475.07 96.51C474.81 95.08 474.26 94.06 473.41 93.44C472.56 92.81 471.29 92.5 469.59 92.5C467.89 92.5 466.46 92.83 465.47 93.5C464.83 93.93 464.51 94.5 464.51 95.22C464.51 95.88 464.81 96.44 465.41 96.91C466.17 97.5 468.02 98.12 470.96 98.76C473.9 99.41 476.07 100.07 477.48 100.76C478.89 101.45 479.99 102.39 480.79 103.58C481.58 104.77 481.98 106.25 481.98 108C481.98 109.59 481.51 111.08 480.55 112.46C479.6 113.85 478.25 114.88 476.51 115.55C474.77 116.23 472.6 116.56 470 116.56C466.22 116.56 463.31 115.75 461.29 114.13C459.26 112.51 458.05 110.15 457.66 107.05L457.65 107.02Z" fill="#3E4095"></path>
    <path fill-rule="evenodd" clip-rule="evenodd" d="M275.81 32.08C273.54 29.69 271.01 27.9 268.24 26.75C265.48 25.58 262.38 25 258.97 25C252.97 25 248.18 26.95 244.63 30.86C241.06 34.78 239.27 40 239.27 46.56C239.27 53.12 241.03 58.5 244.57 62.37C248.11 66.23 252.9 68.16 258.97 68.16C262.41 68.16 265.54 67.56 268.35 66.39C271.16 65.2 273.65 63.43 275.81 61.08V70.42C273.46 72.12 270.86 73.38 268 74.21C265.14 75.03 261.94 75.45 258.4 75.45C254.32 75.45 250.59 74.81 247.22 73.51C243.86 72.22 240.92 70.32 238.39 67.81C235.71 65.12 233.71 62.01 232.39 58.5C231.07 54.99 230.4 51.01 230.4 46.57C230.4 42.13 231.09 38.36 232.47 34.75C233.85 31.14 235.87 27.99 238.53 25.3C241.01 22.79 243.91 20.9 247.22 19.63C250.54 18.36 254.24 17.73 258.33 17.73C261.59 17.73 264.66 18.15 267.54 18.98C270.42 19.83 273.17 21.09 275.8 22.79V32.1L275.81 32.08ZM291.05 74.28V32.29H298.66C298.61 34.03 298.51 35.8 298.34 37.59C298.17 39.39 297.96 41.26 297.67 43.21C299.72 39.33 302.09 36.44 304.78 34.54C307.46 32.65 310.58 31.69 314.1 31.69C315.09 31.69 316.09 31.77 317.12 31.94C318.16 32.09 319.22 32.33 320.31 32.63L317.58 40.87C316.63 40.52 315.71 40.26 314.82 40.1C313.92 39.95 313.07 39.86 312.25 39.86C308.13 39.86 304.88 41.21 302.49 43.91C300.1 46.6 298.89 50.3 298.89 54.99V74.28H291.05ZM341.04 21.94C341.04 23.48 340.49 24.69 339.39 25.58C338.28 26.47 336.77 26.93 334.83 26.93C332.89 26.93 331.34 26.48 330.23 25.58C329.11 24.69 328.55 23.47 328.55 21.94C328.55 20.41 329.11 19.14 330.23 18.23C331.34 17.31 332.87 16.85 334.83 16.85C336.79 16.85 338.28 17.31 339.39 18.23C340.5 19.15 341.04 20.38 341.04 21.94ZM330.77 74.28V33.65H338.9V74.28H330.77ZM355.95 62.22C357.49 64.37 359.27 66.02 361.31 67.15C363.35 68.28 365.54 68.84 367.88 68.84C370.22 68.84 372.23 68.3 373.73 67.22C375.23 66.14 375.98 64.74 375.98 63.05C375.98 61.7 375.46 60.55 374.4 59.59C373.34 58.61 371.65 57.76 369.32 56.98C368.39 56.68 367.09 56.28 365.42 55.77C361.77 54.65 359.43 53.81 358.41 53.22C356.16 51.91 354.52 50.49 353.51 48.95C352.5 47.4 352 45.56 352 43.41C352 39.89 353.35 36.95 356.02 34.62C358.71 32.3 362.13 31.13 366.26 31.13C369.52 31.13 372.46 31.74 375.08 32.96C377.71 34.17 379.95 35.97 381.78 38.34L376.07 42.98C374.53 41.12 372.97 39.73 371.38 38.83C369.78 37.93 368.13 37.47 366.4 37.47C364.33 37.47 362.66 37.93 361.4 38.85C360.13 39.77 359.5 40.96 359.5 42.42C359.5 43.59 359.93 44.57 360.77 45.38C361.62 46.2 362.97 46.89 364.83 47.48C365.21 47.6 365.75 47.77 366.44 47.97C371.34 49.48 374.42 50.55 375.65 51.18C378.55 52.72 380.59 54.31 381.75 55.98C382.92 57.63 383.5 59.73 383.5 62.27C383.5 66.22 382.07 69.41 379.21 71.82C376.34 74.22 372.56 75.43 367.83 75.43C364.09 75.43 360.7 74.72 357.68 73.29C354.66 71.86 352.19 69.8 350.29 67.14L355.98 62.22H355.95ZM398.33 74.28V38.22H389.47V32.29H398.33V18.93H406.1V32.29H414.75V38.22H406.1V74.28H398.33ZM459.25 74.28H451.68C451.78 72.77 451.91 71.23 452.06 69.66C452.23 68.09 452.44 66.47 452.69 64.79C450.67 68.25 448.37 70.9 445.79 72.71C443.21 74.53 440.46 75.44 437.53 75.44C432.51 75.44 428.4 73.44 425.23 69.44C422.05 65.44 420.47 60.23 420.47 53.79C420.47 47.35 422.08 41.93 425.3 37.85C428.51 33.75 432.67 31.71 437.76 31.71C440.83 31.71 443.61 32.57 446.08 34.27C448.56 35.98 450.76 38.56 452.69 42C452.42 40.39 452.19 38.8 452.02 37.19C451.87 35.58 451.75 33.96 451.67 32.31H459.24V74.3L459.25 74.28ZM440.16 67.93C443.53 67.93 446.24 66.62 448.3 63.99C450.36 61.36 451.39 57.86 451.39 53.49C451.39 49.12 450.35 45.61 448.3 42.95C446.24 40.3 443.53 38.97 440.16 38.97C436.79 38.97 434.08 40.29 432.01 42.95C429.94 45.6 428.9 49.12 428.9 53.49C428.9 57.86 429.94 61.34 432.01 63.97C434.08 66.61 436.8 67.93 440.16 67.93ZM474.32 74.28V16.91H482.45V74.28H474.32Z" fill="#E30613"></path>
  </g>
  <defs>
    <clipPath id="clip0_884_2">
      <rect width="482.45" height="133.37" fill="white"></rect>
    </clipPath>
  </defs>
</svg>
